<svg version="1" xmlns="http://www.w3.org/2000/svg" width="1417.333" height="1417.333" viewBox="0 0 1063.000000 1063.000000"><path d="M218.5 1.5c-52.4 6.9-82.1 27.1-99.4 67.7-5.2 12.2-8.7 25-10.6 38.3-.3 2.2-.8 4.6-1 5.2-.7 2.2-1.9 23.2-1.9 34.3 0 10.5 1 28.3 1.9 33 .2 1.4.9 5.4 1.4 9 2.3 14 8.3 32.1 14.8 43.9 12.7 23.1 31.1 39.5 57.3 50.9 9.2 4 26.6 8.5 37.1 9.7 3 .3 6.8.9 8.4 1.2 1.7.3 98.8.7 216 .8 117.2.2 214.1.5 215.5.9 1.3.3 4.1.8 6.2 1.1 10.1 1.5 22 7.6 27.8 14.1 10.2 11.7 12.6 33 5.4 47.9-3.7 7.5-9.7 13.2-17.9 17.1-15.1 7.2.2 6.7-219.5 7-176.3.1-212.3.4-219.5 1.8-1.1.2-4.2.7-7 1-2.7.4-9.3 1.6-14.5 2.8-48.4 10.4-80.5 37.6-97.8 82.8-2.2 5.7-7 21.3-7.8 25.2-1.4 7.1-4.4 26.3-5.1 32.3-1.1 9.3-1 404 0 413 .7 6.1 2.2 14.9 4.2 25 2.6 13.5 11.1 33.9 19.2 46.3 3.6 5.5 17.8 20.3 23.9 24.9 8.2 6.2 32.5 16.6 43.9 18.8 1.7.3 4.1.8 5.5 1.1 1.4.2 4.5.9 7 1.4 15.2 3 55.4 3.3 74 .5 5.2-.8 13.7-2.5 17.5-3.5 2.2-.6 4.7-1.2 5.5-1.4 5.4-1.4 15.7-5.4 23-8.9 31.2-15.3 51.9-42.3 61.4-80.2 2.5-10.1 4.3-20.8 5.2-32 .4-4.4.7-63.6.8-131.5l.1-123.5 118-.1c105.3-.2 143.3-.6 154.5-1.8 1.9-.2 6.9-.7 11-1 4.1-.4 9-.9 11-1.2 5-.7 17-2.5 20-3 1.4-.2 4.1-.7 6-1 1.9-.3 4.2-.7 5-1 .8-.3 3.2-.8 5.4-1.1 2.1-.3 9.5-2.1 16.5-3.9 6.9-1.9 13.3-3.7 14.1-3.9 4-1 23.4-8.1 31-11.3 9.3-3.9 27-12.9 33.8-17.1 5.2-3.2 25.3-17.1 26.8-18.5.6-.6 3.6-3.1 6.5-5.6 29.9-25 55.8-62.8 71.8-104.9 5.3-13.8 12.5-37.8 14.5-48.1.2-1.4 1.1-5.7 1.9-9.5.9-3.9 1.8-8.8 2.1-11 .4-2.2.8-4.7 1.1-5.5.2-.8.6-4.2 1-7.4.3-3.2.7-6.2.9-6.5.2-.3.7-4.2 1-8.6.4-4.4.9-8.7 1.1-9.5.2-.8.7-6.5 1.1-12.5.3-6.1.7-13.3.9-16 1.3-18.6.2-68.1-2-87.5-.2-1.9-.7-6.4-1.1-10-.3-3.6-.8-7.2-.9-8.1-.2-.9-.6-4-1-6.9-.4-2.9-.9-6.2-1.1-7.4-.2-1.2-.9-4.8-1.4-8.2-.5-3.4-2.1-11-3.5-17s-2.8-11.7-3-12.7c-1.7-7.3-8.8-29.3-12.7-39.2-4.6-11.7-13.4-30-19.1-39.4-2.1-3.6-4.6-7.9-5.6-9.5-1.8-3.2-15.3-21.6-19.1-26-26.6-31.3-63.8-57.2-104-72.3C765.5 19 733.7 10 723 8.6c-1.9-.3-4.5-.7-5.6-1-6.4-1.4-27.6-4.2-38.5-5.1-4.1-.4-9-.9-10.9-1.3C666.1.9 566.4.5 446.5.4c-174.6-.1-220 .1-228 1.1z"/></svg>